<svg width="256" height="256" viewBox="0 0 256 256" fill="none" xmlns="http://www.w3.org/2000/svg">
  <defs>
    <linearGradient id="tower-core" x1="64" y1="32" x2="196" y2="224" gradientUnits="userSpaceOnUse">
      <stop stop-color="#67E8F9"/>
      <stop offset="0.48" stop-color="#38BDF8"/>
      <stop offset="1" stop-color="#2563EB"/>
    </linearGradient>
    <linearGradient id="tower-glow" x1="42" y1="34" x2="214" y2="222" gradientUnits="userSpaceOnUse">
      <stop stop-color="#22D3EE" stop-opacity="0.5"/>
      <stop offset="1" stop-color="#2563EB" stop-opacity="0.12"/>
    </linearGradient>
  </defs>
  <rect x="20" y="20" width="216" height="216" rx="54" fill="#07111F"/>
  <path d="M128 33C173.3 33 210 69.7 210 115C210 160.3 173.3 197 128 197C82.7 197 46 160.3 46 115C46 69.7 82.7 33 128 33Z" stroke="url(#tower-glow)" stroke-width="10"/>
  <path d="M69 199H187" stroke="#67E8F9" stroke-width="12" stroke-linecap="round"/>
  <path d="M91 171L128 55L165 171H143L136 146H120L113 171H91Z" fill="url(#tower-core)"/>
  <path d="M112 103H144" stroke="#D8FBFF" stroke-width="12" stroke-linecap="round"/>
  <path d="M101 132H155" stroke="#D8FBFF" stroke-width="12" stroke-linecap="round"/>
  <path d="M64 105C76.5 92.2 94.6 84 115 84H141C161.4 84 179.5 92.2 192 105" stroke="#38BDF8" stroke-width="8" stroke-linecap="round" stroke-opacity="0.8"/>
  <circle cx="128" cy="115" r="8" fill="#F8FDFF"/>
</svg>
